<svg xmlns="http://www.w3.org/2000/svg" viewBox="0 0 420 320"><rect width="420" height="320" fill="#d9caa8"/><ellipse cx="210" cy="258" rx="145" ry="27" fill="#5f4024" opacity=".13"/><path d="M68 135c12 103 59 146 142 146s130-43 142-146H68Z" fill="#e1a72e"/><ellipse cx="210" cy="135" rx="142" ry="46" fill="#c89021"/><ellipse cx="210" cy="134" rx="123" ry="37" fill="#f1e4c7"/><g fill="#d7a85c"><rect x="106" y="103" width="47" height="40" rx="8" transform="rotate(-10 106 103)"/><rect x="168" y="145" width="49" height="42" rx="8" transform="rotate(8 168 145)"/><rect x="232" y="101" width="48" height="42" rx="8" transform="rotate(12 232 101)"/></g><g fill="#4d8b56"><circle cx="157" cy="97" r="18"/><circle cx="298" cy="151" r="18"/><circle cx="251" cy="167" r="15"/></g><path d="M289 91c28 4 43 20 46 47-31 5-54-3-68-22 3-12 10-20 22-25Z" fill="#6f9a58"/><path d="M100 161c29-12 53-7 73 16-25 21-50 26-75 14-6-11-5-21 2-30Z" fill="#74476e"/><circle cx="210" cy="112" r="13" fill="#e0ac3b"/></svg>